Coordinates
version=1
nRows=10
nColumns=23
inDegrees=yes

Units are S.I. units (second, meters, Newtons, ...)
If the header above contains a line with 'inDegrees', this indicates whether rotational values are in degrees (yes) or radians (no).

endheader
time	pelvis_tilt	pelvis_list	pelvis_rotation	pelvis_tx	pelvis_ty	pelvis_tz	hip_flexion_r	hip_adduction_r	hip_rotation_r	knee_angle_r	knee_angle_r_beta	ankle_angle_r	subtalar_angle_r	mtp_angle_r	hip_flexion_l	hip_adduction_l	hip_rotation_l	knee_angle_l	knee_angle_l_beta	ankle_angle_l	subtalar_angle_l	mtp_angle_l
      0.00000000	      0.33658564	     -0.94871470	      4.65079419	      2.25272731	      1.01483760	      1.02088282	     23.21061894	     -4.35865340	    -20.18070548	     25.45225705	      0.44422569	      1.33960769	      3.41693172	      0.00000000	    -16.32194275	     -4.58773993	    -12.02204039	     33.93089208	      0.59220578	     -5.94680348	     -5.27468476	      0.00000000
      0.00666667	      0.65822410	     -1.26832605	      4.25661948	      2.25318542	      1.01273746	      1.02198953	     22.21600966	     -3.51911941	    -20.37989125	     24.12899389	      0.42113039	      0.73679568	      3.98790163	      0.00000000	    -15.49070542	     -5.27122751	    -11.89674949	     37.99392423	      0.66311907	     -5.46226507	     -7.19982678	      0.00000000
      0.01333333	      1.32629637	     -1.72641771	      4.09832181	      2.25367440	      1.01096171	      1.02268230	     20.71282882	     -2.50320332	    -20.55208531	     22.59464911	      0.39435102	     -0.11390434	      3.95416340	      0.00000000	    -15.12470495	     -6.00146742	    -11.29693650	     41.72858870	      0.72830127	     -5.24397537	     -9.27894936	      0.00000000
      0.02000000	      1.54816436	     -1.99335596	      3.71960982	      2.25387832	      1.00812386	      1.02358619	     19.91562431	     -1.75336220	    -20.47254677	     21.61986966	      0.37733791	     -0.63203081	      4.27238933	      0.00000000	    -14.28528342	     -6.38572791	    -10.78123811	     45.48077517	      0.79378927	     -4.92896307	    -11.06608570	      0.00000000
      0.02666667	      1.89674459	     -2.25669280	      3.50340483	      2.25405540	      1.00518136	      1.02414451	     18.93085074	     -1.00906179	    -20.19632821	     20.73110956	      0.36182612	     -1.26553536	      3.96501794	      0.00000000	    -13.55855352	     -6.61972854	     -9.83273803	     49.09563661	      0.85688051	     -4.80088889	    -13.09471763	      0.00000000
      0.03333333	      2.11443477	     -2.46635358	      3.27747272	      2.25406600	      1.00163842	      1.02463937	     18.19246169	     -0.41986376	    -19.91423118	     20.31305314	      0.35452966	     -1.56683690	      3.91625996	      0.00000000	    -12.62895666	     -6.79065112	     -9.00245482	     52.73694749	      0.92043337	     -4.57749394	    -14.58179721	      0.00000000
      0.04000000	      2.29988264	     -2.55963412	      3.04321743	      2.25381460	      0.99770403	      1.02502316	     17.55523655	      0.04731858	    -19.27139893	     20.24202869	      0.35329005	     -1.67447488	      3.35903631	      0.00000000	    -11.59848493	     -6.72638239	     -8.06955768	     56.33178671	      0.98317515	     -4.39258446	    -16.08883864	      0.00000000
      0.04666667	      2.69656701	     -2.73962492	      2.87865783	      2.25352487	      0.99364234	      1.02525452	     16.71156160	      0.52785562	    -18.76278339	     20.51978638	      0.35813783	     -1.26393058	      3.09546246	      0.00000000	    -10.74910012	     -6.86090402	     -7.35806998	     59.87676822	      1.04504675	     -4.11659641	    -17.08795919	      0.00000000
      0.05333333	      3.36009105	     -2.68725661	      2.66970386	      2.25302916	      0.98973975	      1.02550564	     15.58858087	      0.76156065	    -18.09101003	     21.06411355	      0.36763814	     -0.95366777	      3.00808060	      0.00000000	    -10.19519935	     -6.77763599	     -6.82291110	     63.20059877	      1.10305854	     -4.35164343	    -17.53621862	      0.00000000
      0.06000000	      2.76000762	     -2.81701041	      2.72981371	      2.25203126	      0.98385585	      1.02529285	     16.00890450	      1.09916315	    -17.08258007	     22.10552152	      0.38581413	      0.33664249	      0.88673695	      0.00000000	     -7.87280635	     -6.71838430	     -5.69066636	     67.02463345	      1.16980053	     -3.76539253	    -18.56470135	      0.00000000
